<svg xmlns="http://www.w3.org/2000/svg" viewBox="0 0 320 200" role="img" aria-label="Port şəkli"><defs><linearGradient id="bg" x1="0" y1="0" x2="0" y2="1"><stop offset="0" stop-color="#d7dbe1"/><stop offset="1" stop-color="#a9b0ba"/></linearGradient><linearGradient id="mt" x1="0" y1="0" x2="0" y2="1"><stop offset="0" stop-color="#f1f3f5"/><stop offset=".5" stop-color="#b9bfc7"/><stop offset="1" stop-color="#8d949e"/></linearGradient><linearGradient id="au" x1="0" y1="0" x2="0" y2="1"><stop offset="0" stop-color="#f7d774"/><stop offset="1" stop-color="#b88a18"/></linearGradient></defs><rect width="320" height="200" rx="18" fill="url(#bg)"/><rect x="6" y="6" width="308" height="188" rx="14" fill="none" stroke="#fff" stroke-opacity=".35"/>
<rect x="62" y="68" width="196" height="64" rx="32" fill="url(#mt)" stroke="#6b727c" stroke-width="2"/>
<rect x="70" y="76" width="180" height="48" rx="24" fill="#0d0d0d"/>
<rect x="96" y="92" width="128" height="16" rx="8" fill="#2b2b2b"/>
<rect x="104" y="93" width="6" height="5" rx="1" fill="url(#au)"/><rect x="114" y="93" width="6" height="5" rx="1" fill="url(#au)"/><rect x="124" y="93" width="6" height="5" rx="1" fill="url(#au)"/><rect x="134" y="93" width="6" height="5" rx="1" fill="url(#au)"/><rect x="144" y="93" width="6" height="5" rx="1" fill="url(#au)"/><rect x="154" y="93" width="6" height="5" rx="1" fill="url(#au)"/><rect x="164" y="93" width="6" height="5" rx="1" fill="url(#au)"/><rect x="174" y="93" width="6" height="5" rx="1" fill="url(#au)"/><rect x="184" y="93" width="6" height="5" rx="1" fill="url(#au)"/><rect x="194" y="93" width="6" height="5" rx="1" fill="url(#au)"/><rect x="204" y="93" width="6" height="5" rx="1" fill="url(#au)"/><rect x="214" y="93" width="6" height="5" rx="1" fill="url(#au)"/><rect x="104" y="102" width="6" height="5" rx="1" fill="url(#au)"/><rect x="114" y="102" width="6" height="5" rx="1" fill="url(#au)"/><rect x="124" y="102" width="6" height="5" rx="1" fill="url(#au)"/><rect x="134" y="102" width="6" height="5" rx="1" fill="url(#au)"/><rect x="144" y="102" width="6" height="5" rx="1" fill="url(#au)"/><rect x="154" y="102" width="6" height="5" rx="1" fill="url(#au)"/><rect x="164" y="102" width="6" height="5" rx="1" fill="url(#au)"/><rect x="174" y="102" width="6" height="5" rx="1" fill="url(#au)"/><rect x="184" y="102" width="6" height="5" rx="1" fill="url(#au)"/><rect x="194" y="102" width="6" height="5" rx="1" fill="url(#au)"/><rect x="204" y="102" width="6" height="5" rx="1" fill="url(#au)"/><rect x="214" y="102" width="6" height="5" rx="1" fill="url(#au)"/>
</svg>
